<svg width="1225" height="518" viewBox="0 0 1225 518" fill="none" xmlns="http://www.w3.org/2000/svg">
<rect x="0.5" y="108.396" width="337.29" height="414.757" rx="52" transform="rotate(-16.6382 0.5 108.396)" fill="#111F00"/>
<circle cx="221" cy="224" r="100" transform="rotate(-17.4774 221 224)" fill="#D9D9D9"/>
<path d="M163.799 224.884C166.397 224.067 167.974 224.54 168.53 226.306C168.7 226.846 168.825 227.753 168.905 229.027C168.985 230.301 169.107 231.273 169.27 231.944C169.448 232.61 170.302 235.372 171.832 240.232C173.362 245.091 174.398 247.925 174.941 248.732C175.499 249.535 176.123 249.94 176.815 249.947C177.217 249.949 178.053 249.75 179.322 249.35C180.592 248.95 182.119 248.197 183.904 247.089C185.688 245.982 186.785 245.364 187.193 245.235C187.602 245.107 187.989 245.113 188.354 245.255C188.72 245.396 189.029 245.869 189.282 246.671L189.447 247.197C189.824 248.393 189.896 249.261 189.665 249.799C189.322 250.596 188.21 251.291 186.327 251.884L184.664 252.408L184.11 252.558L181.308 253.44L179.637 253.942C174.778 255.473 171.883 256.239 170.954 256.243C170.04 256.243 169.417 255.717 169.086 254.666C168.999 254.389 168.935 253.855 168.895 253.066C168.855 252.277 168.803 251.627 168.739 251.118C168.685 250.59 168.488 249.786 168.148 248.706L167.639 247.014L165.365 239.79L165.164 239.228L164.826 238.155L164.632 237.615L164.294 236.542L163.927 235.455C163.927 235.455 163.753 234.9 163.404 233.791C163.165 233.032 162.646 232.073 161.848 230.912C161.049 229.752 160.602 229.019 160.505 228.713C160.188 227.706 160.309 226.866 160.867 226.193C161.144 225.849 161.939 225.47 163.252 225.057L163.799 224.884ZM193.556 231.515L194.107 233.266C194.585 234.784 195.291 236.262 196.225 237.7C198.777 241.677 201.884 243.088 205.547 241.935C207.779 241.232 209.291 239.793 210.082 237.62C210.427 236.677 210.579 235.402 210.538 233.795C210.493 232.173 210.263 230.705 209.85 229.392L209.673 228.678L209.122 226.927C208.681 225.526 208.017 224.107 207.131 222.669C205.487 219.995 203.588 218.444 201.432 218.016C200.269 217.788 199.185 217.833 198.178 218.15L197.499 218.364C195.31 219.053 193.82 220.637 193.029 223.116C192.773 223.934 192.666 225.123 192.708 226.681C192.749 228.24 193.032 229.851 193.556 231.515ZM215.221 224.597L215.697 226.107C216.386 228.296 216.717 230.518 216.689 232.773C216.671 235.008 216.309 236.942 215.604 238.576C214.895 240.194 213.779 241.693 212.256 243.07C210.747 244.444 208.972 245.452 206.929 246.095C204.896 246.719 202.859 246.951 200.82 246.791C194.761 246.293 190.545 242.279 188.174 234.749L187.857 233.742C187.09 231.305 186.746 228.991 186.827 226.801C186.917 224.591 187.333 222.704 188.075 221.138C188.832 219.569 189.934 218.179 191.382 216.969C192.844 215.755 194.553 214.84 196.509 214.224L197.034 214.059C201.135 212.768 204.875 213.082 208.254 215.001C209.558 215.73 210.866 216.954 212.177 218.674C213.504 220.39 214.518 222.364 215.221 224.597ZM226.154 222.334C226.682 224.012 227.383 225.475 228.258 226.724C229.142 227.953 230.005 228.885 230.846 229.518C231.697 230.132 232.824 230.555 234.229 230.787C235.633 231.018 236.992 230.927 238.305 230.514C239.633 230.096 240.554 229.404 241.069 228.44C241.598 227.472 241.697 226.462 241.366 225.412C241.035 224.361 240.22 223.503 238.92 222.838C237.629 222.153 236.895 221.526 236.715 220.957C236.651 220.753 236.689 220.516 236.829 220.248C237.189 219.557 238.295 218.92 240.149 218.336C242.017 217.748 243.397 217.522 244.29 217.658C245.178 217.779 245.765 218.292 246.05 219.197C247.856 224.932 248.446 228.54 247.821 230.019C247.428 230.961 246.369 231.977 244.642 233.066C242.931 234.15 241.009 235.027 238.879 235.698C234.501 237.077 230.669 236.751 227.384 234.722C225.928 233.817 224.538 232.434 223.214 230.574C221.886 228.698 220.838 226.542 220.071 224.105C217.713 216.618 219.064 210.82 224.121 206.709C225.588 205.51 227.409 204.567 229.583 203.883L230.437 203.614C233.253 202.727 235.339 202.399 236.695 202.63C238.046 202.846 239.03 203.218 239.645 203.746C240.256 204.26 240.616 204.691 240.727 205.042C241.062 206.107 241.088 206.901 240.803 207.424C240.528 207.927 240.238 208.227 239.931 208.324C239.64 208.415 238.421 208.39 236.275 208.248C234.143 208.101 232.406 208.239 231.064 208.662C228.276 209.539 226.457 211.251 225.607 213.796C224.868 215.986 225.051 218.831 226.154 222.334ZM255.767 211.927L256.318 213.678C256.796 215.196 257.502 216.674 258.436 218.112C260.987 222.089 264.094 223.5 267.757 222.347C269.99 221.644 271.502 220.205 272.293 218.032C272.638 217.089 272.79 215.814 272.749 214.207C272.704 212.585 272.474 211.117 272.061 209.804L271.884 209.09L271.332 207.339C270.891 205.938 270.228 204.519 269.342 203.081C267.698 200.407 265.798 198.856 263.642 198.428C262.48 198.2 261.395 198.245 260.389 198.562L259.71 198.776C257.521 199.465 256.031 201.049 255.239 203.528C254.984 204.346 254.877 205.535 254.918 207.093C254.96 208.652 255.243 210.263 255.767 211.927ZM277.432 205.009L277.907 206.519C278.597 208.708 278.927 210.93 278.899 213.185C278.881 215.42 278.52 217.354 277.815 218.988C277.106 220.606 275.99 222.105 274.467 223.482C272.958 224.856 271.182 225.864 269.139 226.507C267.106 227.131 265.07 227.363 263.031 227.203C256.971 226.705 252.756 222.691 250.385 215.161L250.068 214.154C249.301 211.717 248.957 209.403 249.037 207.213C249.127 205.003 249.544 203.116 250.286 201.55C251.043 199.981 252.145 198.591 253.593 197.381C255.055 196.167 256.764 195.252 258.719 194.636L259.245 194.471C263.345 193.18 267.085 193.494 270.465 195.413C271.769 196.142 273.077 197.366 274.388 199.086C275.714 200.802 276.729 202.776 277.432 205.009Z" fill="#818181"/>
<rect x="296.285" y="24.7591" width="337.29" height="414.757" rx="52" transform="rotate(-4.20964 296.285 24.7591)" fill="#4E662A"/>
<circle cx="485.258" cy="182.258" r="100" transform="rotate(-4.95174 485.258 182.258)" fill="#D9D9D9"/>
<path d="M429.227 170.716C431.94 170.481 433.377 171.286 433.536 173.13C433.585 173.694 433.511 174.607 433.313 175.868C433.115 177.129 433.023 178.104 433.037 178.794C433.066 179.483 433.3 182.365 433.74 187.44C434.18 192.516 434.577 195.507 434.932 196.413C435.302 197.318 435.824 197.848 436.498 198.005C436.889 198.094 437.748 198.081 439.074 197.966C440.401 197.851 442.055 197.447 444.037 196.753C446.019 196.059 447.224 195.694 447.651 195.657C448.078 195.62 448.454 195.71 448.78 195.927C449.106 196.145 449.305 196.673 449.378 197.511L449.425 198.06C449.534 199.31 449.416 200.172 449.074 200.647C448.566 201.351 447.33 201.789 445.363 201.959L443.626 202.11L443.052 202.136L440.126 202.39L438.386 202.518C433.31 202.957 430.319 203.078 429.411 202.881C428.518 202.681 428.024 202.033 427.929 200.936C427.904 200.646 427.958 200.112 428.09 199.332C428.222 198.553 428.312 197.908 428.36 197.397C428.422 196.87 428.404 196.042 428.306 194.914L428.176 193.151L427.523 185.607L427.448 185.014L427.351 183.894L427.279 183.324L427.182 182.204L427.06 181.063C427.06 181.063 427.01 180.483 426.909 179.325C426.841 178.532 426.542 177.483 426.015 176.178C425.487 174.872 425.209 174.059 425.181 173.739C425.09 172.687 425.39 171.893 426.081 171.357C426.425 171.082 427.284 170.885 428.655 170.766L429.227 170.716ZM456.837 183.643L456.996 185.472C457.133 187.057 457.502 188.653 458.102 190.259C459.73 194.695 462.457 196.746 466.283 196.415C468.615 196.213 470.403 195.137 471.647 193.186C472.188 192.341 472.613 191.129 472.921 189.551C473.229 187.958 473.323 186.476 473.204 185.104L473.186 184.368L473.028 182.539C472.901 181.076 472.561 179.547 472.008 177.951C470.983 174.984 469.465 173.058 467.453 172.173C466.368 171.699 465.3 171.507 464.248 171.598L463.539 171.66C461.253 171.858 459.454 173.081 458.144 175.329C457.717 176.072 457.355 177.209 457.058 178.74C456.76 180.271 456.687 181.905 456.837 183.643ZM479.487 181.588L479.624 183.166C479.822 185.452 479.663 187.692 479.147 189.887C478.644 192.065 477.872 193.875 476.83 195.317C475.786 196.743 474.372 197.964 472.586 198.979C470.816 199.992 468.864 200.591 466.73 200.776C464.61 200.944 462.572 200.729 460.616 200.131C454.808 198.331 451.564 193.498 450.883 185.633L450.791 184.581C450.571 182.036 450.737 179.702 451.291 177.581C451.858 175.443 452.674 173.691 453.738 172.324C454.817 170.956 456.194 169.839 457.87 168.972C459.561 168.104 461.427 167.581 463.47 167.404L464.019 167.356C468.302 166.985 471.885 168.103 474.767 170.71C475.882 171.703 476.893 173.182 477.801 175.146C478.723 177.109 479.285 179.256 479.487 181.588ZM490.65 181.75C490.802 183.502 491.17 185.083 491.752 186.492C492.349 187.883 492.989 188.98 493.673 189.78C494.37 190.565 495.379 191.222 496.7 191.753C498.021 192.283 499.367 192.489 500.739 192.37C502.126 192.25 503.175 191.775 503.886 190.946C504.613 190.115 504.928 189.151 504.833 188.053C504.738 186.956 504.128 185.941 503.003 185.01C501.892 184.062 501.311 183.291 501.259 182.696C501.241 182.483 501.329 182.26 501.524 182.028C502.025 181.432 503.244 181.05 505.18 180.882C507.131 180.713 508.527 180.792 509.369 181.118C510.21 181.429 510.672 182.057 510.753 183.002C511.272 188.993 511.067 192.642 510.136 193.952C509.548 194.786 508.293 195.547 506.372 196.236C504.465 196.923 502.4 197.363 500.174 197.556C495.602 197.952 491.932 196.803 489.164 194.11C487.939 192.911 486.883 191.259 485.994 189.156C485.104 187.037 484.549 184.705 484.328 182.159C483.651 174.34 486.226 168.972 492.055 166.056C493.747 165.203 495.729 164.678 498 164.481L498.891 164.404C501.833 164.149 503.941 164.282 505.214 164.801C506.487 165.305 507.366 165.881 507.852 166.53C508.337 167.164 508.595 167.664 508.627 168.03C508.723 169.142 508.576 169.923 508.185 170.371C507.808 170.803 507.459 171.033 507.139 171.061C506.834 171.087 505.65 170.798 503.585 170.194C501.537 169.588 499.811 169.346 498.409 169.468C495.497 169.72 493.351 170.996 491.968 173.297C490.773 175.274 490.333 178.091 490.65 181.75ZM521.816 178.013L521.974 179.842C522.112 181.427 522.48 183.023 523.08 184.63C524.708 189.065 527.435 191.117 531.261 190.785C533.593 190.583 535.381 189.507 536.625 187.556C537.166 186.711 537.591 185.499 537.899 183.922C538.207 182.328 538.301 180.846 538.182 179.474L538.165 178.739L538.006 176.91C537.879 175.446 537.539 173.917 536.987 172.322C535.962 169.355 534.443 167.428 532.432 166.543C531.346 166.069 530.278 165.877 529.226 165.968L528.517 166.03C526.231 166.228 524.433 167.451 523.123 169.699C522.696 170.443 522.333 171.58 522.036 173.11C521.739 174.641 521.665 176.275 521.816 178.013ZM544.466 175.958L544.602 177.536C544.8 179.822 544.641 182.063 544.125 184.257C543.623 186.436 542.85 188.245 541.808 189.687C540.765 191.114 539.35 192.334 537.564 193.349C535.794 194.362 533.842 194.961 531.708 195.146C529.588 195.315 527.55 195.1 525.594 194.501C519.787 192.701 516.542 187.868 515.861 180.003L515.77 178.951C515.549 176.406 515.716 174.073 516.269 171.951C516.836 169.814 517.652 168.062 518.716 166.695C519.795 165.327 521.173 164.209 522.848 163.342C524.539 162.474 526.406 161.951 528.448 161.774L528.997 161.727C533.28 161.356 536.863 162.473 539.745 165.08C540.86 166.074 541.871 167.553 542.779 169.516C543.701 171.479 544.264 173.626 544.466 175.958Z" fill="#818181"/>
<rect x="908.187" y="11.8201" width="337.29" height="414.757" rx="52" transform="rotate(20.3135 908.187 11.8201)" fill="#FAED07"/>
<circle cx="1005" cy="224" r="100" transform="rotate(20.3369 1005 224)" fill="#D9D9D9"/>
<path d="M959.268 189.629C961.822 190.575 962.777 191.916 962.134 193.652C961.937 194.183 961.48 194.976 960.762 196.032C960.045 197.088 959.545 197.93 959.262 198.56C958.994 199.195 957.975 201.901 956.204 206.678C954.434 211.455 953.515 214.329 953.449 215.3C953.398 216.276 953.643 216.979 954.185 217.408C954.501 217.656 955.284 218.011 956.532 218.474C957.78 218.936 959.448 219.277 961.537 219.497C963.626 219.716 964.871 219.9 965.273 220.049C965.674 220.198 965.976 220.44 966.178 220.776C966.38 221.112 966.334 221.675 966.042 222.464L965.851 222.98C965.415 224.156 964.94 224.886 964.427 225.169C963.668 225.589 962.363 225.456 960.512 224.771L958.877 224.164L958.347 223.943L955.592 222.923L953.965 222.295C949.188 220.524 946.431 219.356 945.695 218.789C944.973 218.228 944.803 217.431 945.186 216.398C945.287 216.125 945.564 215.665 946.016 215.017C946.468 214.368 946.825 213.824 947.087 213.382C947.368 212.932 947.705 212.176 948.099 211.114L948.735 209.465L951.367 202.364L951.552 201.796L951.943 200.742L952.121 200.196L952.512 199.142L952.889 198.058C952.889 198.058 953.091 197.513 953.495 196.422C953.772 195.676 953.95 194.6 954.031 193.194C954.111 191.788 954.208 190.935 954.319 190.633C954.686 189.644 955.296 189.054 956.15 188.864C956.579 188.762 957.439 188.951 958.73 189.429L959.268 189.629ZM978.711 213.111L978.073 214.832C977.52 216.324 977.172 217.925 977.028 219.633C976.605 224.339 978.194 227.359 981.795 228.694C983.99 229.508 986.066 229.298 988.024 228.066C988.875 227.533 989.776 226.619 990.729 225.324C991.688 224.015 992.406 222.715 992.885 221.424L993.183 220.751L993.821 219.029C994.332 217.652 994.678 216.124 994.859 214.446C995.2 211.325 994.65 208.935 993.209 207.275C992.431 206.383 991.546 205.753 990.556 205.386L989.889 205.139C987.737 204.341 985.589 204.679 983.444 206.152C982.74 206.642 981.927 207.515 981.004 208.772C980.082 210.029 979.317 211.475 978.711 213.111ZM1000.07 220.929L999.518 222.413C998.72 224.565 997.619 226.523 996.215 228.287C994.83 230.042 993.359 231.348 991.801 232.207C990.248 233.051 988.447 233.55 986.399 233.705C984.366 233.865 982.345 233.572 980.336 232.828C978.348 232.075 976.597 231.01 975.084 229.633C970.602 225.524 969.733 219.769 972.477 212.366L972.844 211.377C973.731 208.981 974.879 206.942 976.285 205.261C977.711 203.57 979.197 202.334 980.743 201.553C982.303 200.777 984.026 200.355 985.912 200.287C987.811 200.224 989.722 200.549 991.645 201.262L992.161 201.453C996.192 202.947 998.954 205.488 1000.45 209.076C1001.03 210.451 1001.31 212.22 1001.29 214.384C1001.29 216.552 1000.88 218.734 1000.07 220.929ZM1010.09 225.843C1009.48 227.493 1009.14 229.079 1009.06 230.602C1009.01 232.115 1009.12 233.38 1009.39 234.396C1009.69 235.403 1010.32 236.428 1011.29 237.472C1012.26 238.516 1013.39 239.277 1014.68 239.756C1015.98 240.239 1017.13 240.258 1018.13 239.812C1019.14 239.371 1019.84 238.635 1020.22 237.602C1020.61 236.569 1020.49 235.391 1019.87 234.068C1019.27 232.736 1019.07 231.791 1019.28 231.231C1019.35 231.03 1019.53 230.867 1019.8 230.74C1020.51 230.415 1021.78 230.591 1023.6 231.266C1025.44 231.946 1026.66 232.614 1027.29 233.269C1027.91 233.909 1028.06 234.674 1027.73 235.564C1025.64 241.202 1023.9 244.414 1022.5 245.2C1021.61 245.703 1020.15 245.855 1018.12 245.657C1016.1 245.464 1014.05 244.98 1011.95 244.203C1007.65 242.608 1004.82 240.002 1003.47 236.384C1002.87 234.777 1002.62 232.832 1002.72 230.551C1002.82 228.255 1003.31 225.909 1004.2 223.513C1006.93 216.154 1011.55 212.401 1018.07 212.254C1019.96 212.205 1021.98 212.577 1024.11 213.37L1024.95 213.681C1027.72 214.707 1029.57 215.727 1030.5 216.74C1031.44 217.739 1031.98 218.636 1032.15 219.431C1032.31 220.211 1032.33 220.773 1032.21 221.117C1031.82 222.165 1031.35 222.807 1030.81 223.046C1030.28 223.275 1029.87 223.334 1029.57 223.223C1029.28 223.116 1028.33 222.349 1026.72 220.921C1025.13 219.498 1023.67 218.542 1022.35 218.053C1019.61 217.037 1017.13 217.274 1014.89 218.763C1012.97 220.04 1011.37 222.4 1010.09 225.843ZM1039.87 235.778L1039.23 237.499C1038.68 238.991 1038.33 240.592 1038.18 242.301C1037.76 247.006 1039.35 250.027 1042.95 251.361C1045.15 252.175 1047.22 251.965 1049.18 250.733C1050.03 250.2 1050.93 249.286 1051.89 247.991C1052.84 246.682 1053.56 245.382 1054.04 244.091L1054.34 243.418L1054.98 241.697C1055.49 240.319 1055.83 238.791 1056.02 237.113C1056.36 233.992 1055.81 231.602 1054.37 229.942C1053.59 229.05 1052.7 228.42 1051.71 228.053L1051.05 227.806C1048.89 227.008 1046.75 227.346 1044.6 228.819C1043.9 229.309 1043.08 230.182 1042.16 231.439C1041.24 232.696 1040.47 234.142 1039.87 235.778ZM1061.22 243.596L1060.67 245.081C1059.88 247.232 1058.78 249.19 1057.37 250.954C1055.99 252.709 1054.51 254.015 1052.96 254.874C1051.4 255.718 1049.6 256.217 1047.56 256.372C1045.52 256.532 1043.5 256.24 1041.49 255.495C1039.5 254.742 1037.75 253.677 1036.24 252.3C1031.76 248.191 1030.89 242.436 1033.63 235.034L1034 234.044C1034.89 231.648 1036.03 229.609 1037.44 227.928C1038.87 226.237 1040.35 225.002 1041.9 224.22C1043.46 223.444 1045.18 223.022 1047.07 222.954C1048.97 222.891 1050.88 223.216 1052.8 223.929L1053.32 224.12C1057.35 225.614 1060.11 228.155 1061.6 231.744C1062.19 233.118 1062.47 234.887 1062.45 237.051C1062.45 239.219 1062.04 241.401 1061.22 243.596Z" fill="#818181"/>
<rect x="617.552" y="0.165756" width="337.29" height="414.757" rx="52" transform="rotate(5.79453 617.552 0.165756)" fill="#A85E05"/>
<circle cx="764" cy="199" r="100" transform="rotate(6.33811 764 199)" fill="#D9D9D9"/>
<path d="M711.313 176.712C714.019 177.013 715.27 178.083 715.066 179.923C715.004 180.485 714.752 181.366 714.311 182.564C713.87 183.761 713.589 184.7 713.467 185.379C713.361 186.06 713.026 188.932 712.464 193.996C711.901 199.059 711.706 202.07 711.876 203.028C712.062 203.988 712.47 204.61 713.1 204.896C713.467 205.06 714.312 205.215 715.635 205.362C716.958 205.509 718.659 205.436 720.739 205.144C722.819 204.852 724.071 204.729 724.497 204.776C724.923 204.824 725.274 204.986 725.551 205.263C725.829 205.54 725.921 206.097 725.828 206.933L725.767 207.481C725.628 208.727 725.345 209.55 724.916 209.949C724.28 210.54 722.982 210.727 721.02 210.509L719.287 210.317L718.719 210.23L715.8 209.906L714.069 209.691C709.005 209.128 706.048 208.661 705.196 208.29C704.36 207.92 704.002 207.187 704.124 206.092C704.156 205.804 704.313 205.29 704.595 204.552C704.877 203.813 705.092 203.198 705.239 202.707C705.403 202.201 705.547 201.386 705.672 200.261L705.89 198.507L706.726 190.98L706.769 190.385L706.893 189.267L706.934 188.694L707.058 187.577L707.162 186.434C707.162 186.434 707.226 185.856 707.354 184.7C707.442 183.909 707.355 182.822 707.093 181.439C706.831 180.055 706.718 179.203 706.753 178.884C706.87 177.835 707.319 177.115 708.102 176.725C708.494 176.522 709.374 176.497 710.742 176.649L711.313 176.712ZM735.858 194.793L735.655 196.618C735.48 198.199 735.529 199.837 735.803 201.53C736.531 206.198 738.804 208.744 742.62 209.168C744.947 209.426 746.911 208.721 748.512 207.051C749.209 206.328 749.862 205.223 750.474 203.736C751.087 202.234 751.47 200.799 751.622 199.431L751.748 198.706L751.951 196.881C752.113 195.421 752.079 193.855 751.85 192.182C751.425 189.072 750.314 186.886 748.514 185.624C747.543 184.946 746.532 184.549 745.483 184.433L744.776 184.354C742.495 184.101 740.492 184.948 738.767 186.896C738.203 187.542 737.625 188.586 737.034 190.029C736.443 191.472 736.051 193.06 735.858 194.793ZM758.472 197.213L758.297 198.787C758.044 201.068 757.449 203.234 756.513 205.285C755.594 207.322 754.483 208.946 753.178 210.156C751.876 211.35 750.25 212.27 748.3 212.916C746.365 213.563 744.334 213.768 742.205 213.532C740.093 213.282 738.136 212.672 736.335 211.702C730.993 208.8 728.757 203.425 729.629 195.579L729.745 194.53C730.027 191.991 730.647 189.735 731.605 187.763C732.58 185.778 733.723 184.219 735.034 183.087C736.36 181.957 737.93 181.131 739.743 180.609C741.571 180.088 743.504 179.941 745.541 180.167L746.089 180.228C750.362 180.703 753.656 182.5 755.973 185.621C756.872 186.814 757.574 188.462 758.079 190.565C758.599 192.67 758.73 194.886 758.472 197.213ZM769.387 199.557C769.193 201.305 769.244 202.927 769.54 204.423C769.852 205.904 770.265 207.105 770.779 208.024C771.31 208.929 772.17 209.772 773.362 210.55C774.553 211.329 775.833 211.795 777.201 211.947C778.585 212.1 779.707 211.84 780.567 211.166C781.442 210.493 781.94 209.61 782.062 208.515C782.183 207.42 781.784 206.306 780.863 205.172C779.959 204.025 779.54 203.155 779.606 202.562C779.629 202.349 779.76 202.148 779.996 201.959C780.604 201.472 781.874 201.336 783.805 201.551C785.752 201.767 787.106 202.117 787.868 202.602C788.631 203.072 788.961 203.778 788.856 204.721C788.192 210.697 787.276 214.236 786.107 215.337C785.367 216.04 783.987 216.541 781.968 216.84C779.965 217.141 777.853 217.168 775.633 216.922C771.071 216.415 767.697 214.57 765.51 211.387C764.544 209.971 763.831 208.145 763.371 205.908C762.913 203.656 762.825 201.26 763.107 198.721C763.974 190.92 767.55 186.16 773.837 184.442C775.663 183.937 777.709 183.81 779.975 184.061L780.865 184.16C783.799 184.486 785.84 185.029 786.988 185.787C788.137 186.53 788.886 187.268 789.236 187.999C789.587 188.716 789.743 189.256 789.702 189.621C789.579 190.731 789.281 191.468 788.81 191.831C788.356 192.181 787.969 192.338 787.649 192.303C787.345 192.269 786.24 191.754 784.334 190.757C782.444 189.762 780.799 189.187 779.4 189.031C776.496 188.709 774.141 189.54 772.334 191.525C770.775 193.23 769.793 195.907 769.387 199.557ZM800.681 201.994L800.479 203.818C800.303 205.4 800.352 207.037 800.626 208.73C801.354 213.398 803.627 215.944 807.443 216.368C809.77 216.626 811.734 215.921 813.335 214.252C814.032 213.528 814.685 212.423 815.297 210.937C815.91 209.435 816.293 207.999 816.445 206.631L816.572 205.906L816.774 204.081C816.936 202.621 816.902 201.055 816.673 199.383C816.248 196.272 815.137 194.086 813.337 192.824C812.366 192.146 811.355 191.749 810.306 191.633L809.599 191.554C807.318 191.301 805.315 192.148 803.59 194.096C803.026 194.742 802.448 195.786 801.857 197.229C801.266 198.672 800.874 200.26 800.681 201.994ZM823.295 204.413L823.12 205.987C822.867 208.268 822.272 210.434 821.336 212.485C820.417 214.522 819.306 216.146 818.001 217.356C816.699 218.55 815.073 219.471 813.123 220.116C811.188 220.763 809.157 220.969 807.028 220.732C804.916 220.482 802.959 219.872 801.158 218.902C795.816 216 793.58 210.626 794.452 202.779L794.568 201.73C794.85 199.191 795.47 196.935 796.428 194.963C797.403 192.978 798.546 191.42 799.857 190.288C801.183 189.157 802.753 188.331 804.566 187.809C806.394 187.288 808.327 187.141 810.364 187.368L810.912 187.428C815.185 187.903 818.479 189.701 820.796 192.821C821.695 194.014 822.397 195.662 822.902 197.765C823.422 199.871 823.553 202.086 823.295 204.413Z" fill="#818181"/>
<path d="M1224.5 506H0.5V484.741C485.994 354.892 704.587 356.616 1224.5 484.741V506Z" fill="white"/>
</svg>
