<svg width="200" height="201" viewBox="0 0 200 201" fill="none" xmlns="http://www.w3.org/2000/svg">
<rect y="0.811157" width="200" height="200" rx="24" fill="#CFEDA1"/>
<path d="M124.583 123.269C123.5 119.936 120.375 117.478 116.667 117.478H112.5V104.978C112.5 103.873 112.061 102.813 111.28 102.032C110.498 101.25 109.438 100.811 108.333 100.811H83.3334V92.4778H91.6667C92.7718 92.4778 93.8316 92.0388 94.613 91.2574C95.3944 90.476 95.8334 89.4162 95.8334 88.3111V79.9778H104.167C106.377 79.9778 108.496 79.0998 110.059 77.537C111.622 75.9742 112.5 73.8546 112.5 71.6445V69.9361C117.485 71.946 121.909 75.1339 125.393 79.2271C128.878 83.3203 131.318 88.1968 132.506 93.4391C133.693 98.6814 133.593 104.134 132.213 109.329C130.834 114.524 128.216 119.307 124.583 123.269ZM95.8334 133.853C79.375 131.811 66.6667 117.811 66.6667 100.811C66.6667 98.2278 67 95.7278 67.5417 93.3528L87.5 113.311V117.478C87.5 119.688 88.378 121.808 89.9408 123.37C91.5036 124.933 93.6232 125.811 95.8334 125.811M100 59.1445C94.5283 59.1445 89.1101 60.2222 84.0549 62.3162C78.9997 64.4101 74.4064 67.4792 70.5373 71.3484C62.7232 79.1624 58.3334 89.7605 58.3334 100.811C58.3334 111.862 62.7232 122.46 70.5373 130.274C74.4064 134.143 78.9997 137.212 84.0549 139.306C89.1101 141.4 94.5283 142.478 100 142.478C111.051 142.478 121.649 138.088 129.463 130.274C137.277 122.46 141.667 111.862 141.667 100.811C141.667 95.3394 140.589 89.9212 138.495 84.866C136.401 79.8108 133.332 75.2175 129.463 71.3484C125.594 67.4792 121 64.4101 115.945 62.3162C110.89 60.2222 105.472 59.1445 100 59.1445Z" fill="#4E662A"/>
</svg>
