<svg width="200" height="201" viewBox="0 0 200 201" fill="none" xmlns="http://www.w3.org/2000/svg">
<rect y="0.811157" width="200" height="200" rx="24" fill="#CFEDA1"/>
<path d="M79.5833 98.1028C80.5555 96.1584 81.5624 94.2833 82.6041 92.4778C83.6458 90.6722 84.7916 88.8667 86.0416 87.0611L80.2083 85.9153L71.4583 94.6653L79.5833 98.1028ZM129.792 69.457C124.93 69.5959 119.74 71.0195 114.221 73.7278C108.701 76.4361 103.683 80.0472 99.1666 84.5611C96.2499 87.4778 93.6458 90.6028 91.3541 93.9361C89.0624 97.2695 87.3611 100.394 86.2499 103.311L98.1249 115.082C101.042 113.971 104.167 112.269 107.5 109.978C110.833 107.686 113.958 105.082 116.875 102.165C121.389 97.6514 125 92.6514 127.708 87.1653C130.417 81.6792 131.84 76.5056 131.979 71.6445C131.979 71.3667 131.926 71.0889 131.821 70.8111C131.715 70.5334 131.56 70.2903 131.354 70.082C131.149 69.8736 130.905 69.7181 130.625 69.6153C130.344 69.5125 130.067 69.4598 129.792 69.457ZM106.875 94.457C105.278 92.8597 104.479 90.8986 104.479 88.5736C104.479 86.2486 105.278 84.2861 106.875 82.6861C108.472 81.0861 110.451 80.2875 112.812 80.2903C115.174 80.2931 117.153 81.0917 118.75 82.6861C120.347 84.2806 121.146 86.2431 121.146 88.5736C121.146 90.9042 120.347 92.8653 118.75 94.457C117.153 96.0486 115.174 96.8472 112.812 96.8528C110.451 96.8584 108.472 96.0597 106.875 94.457ZM103.333 121.749L106.771 129.978L115.521 121.228L114.375 115.394C112.569 116.644 110.764 117.774 108.958 118.782C107.153 119.79 105.278 120.779 103.333 121.749ZM139.896 66.1236C140.451 73.7625 139.201 81.2111 136.146 88.4695C133.09 95.7278 128.264 102.654 121.667 109.249L123.75 119.561C124.028 120.95 123.958 122.304 123.542 123.624C123.125 124.943 122.43 126.089 121.458 127.061L108.333 140.186C107.292 141.228 106.042 141.628 104.583 141.386C103.125 141.144 102.118 140.328 101.562 138.936L95.2083 124.04L77.3958 106.228L62.5 99.8736C61.1111 99.3181 60.2777 98.3111 60 96.8528C59.7222 95.3945 60.1041 94.1445 61.1458 93.1028L74.2708 79.9778C75.243 79.0056 76.4055 78.3111 77.7583 77.8945C79.1111 77.4778 80.4833 77.4084 81.8749 77.6861L92.1874 79.7695C98.7847 73.1722 105.712 68.3459 112.971 65.2903C120.229 62.2348 127.676 60.9848 135.312 61.5403C135.868 61.6098 136.424 61.7667 136.979 62.0111C137.535 62.2556 138.021 62.5848 138.437 62.9986C138.854 63.4125 139.185 63.8986 139.429 64.457C139.674 65.0153 139.829 65.5709 139.896 66.1236ZM66.3541 117.374C68.7847 114.943 71.7541 113.711 75.2625 113.678C78.7708 113.644 81.7388 114.842 84.1666 117.269C86.5944 119.697 87.793 122.667 87.7624 126.178C87.7319 129.689 86.4986 132.657 84.0624 135.082C80.7291 138.415 76.7875 140.394 72.2375 141.019C67.6875 141.644 63.1222 142.269 58.5416 142.894L60.4166 129.199C61.0416 124.651 63.0208 120.71 66.3541 117.374ZM72.2916 123.207C71.1111 124.387 70.2958 125.811 69.8458 127.478C69.3958 129.144 69.0305 130.846 68.75 132.582C70.4861 132.304 72.1875 131.957 73.8541 131.54C75.5208 131.124 76.9444 130.325 78.1249 129.144C78.9583 128.311 79.4097 127.304 79.4791 126.124C79.5486 124.943 79.1666 123.936 78.3333 123.103C77.5 122.269 76.493 121.869 75.3124 121.903C74.1319 121.936 73.125 122.371 72.2916 123.207Z" fill="#4E662A"/>
</svg>
