<svg width="200" height="201" viewBox="0 0 200 201" fill="none" xmlns="http://www.w3.org/2000/svg">
<rect y="0.811157" width="200" height="200" rx="24" fill="#CFEDA1"/>
<path d="M58.4615 138.518V130.185C58.4615 130.185 79.2949 121.852 100.128 121.852C120.962 121.852 141.795 130.185 141.795 130.185V138.518H58.4615ZM97.2115 84.7682C92.2115 68.5182 66.7949 72.2682 66.7949 72.2682C66.7949 72.2682 67.6282 104.768 91.3782 99.7682C89.7115 87.6849 83.4615 84.3515 83.4615 84.3515C95.1282 84.3515 95.9615 98.5182 95.9615 98.5182V117.685H104.295V100.185C104.295 100.185 104.295 83.9349 116.795 79.7682C116.795 79.7682 108.462 92.2682 108.462 100.602C137.628 103.518 137.628 63.5182 137.628 63.5182C137.628 63.5182 100.545 59.3515 97.2115 84.7682Z" fill="#4E662A"/>
</svg>
