<svg width="200" height="201" viewBox="0 0 200 201" fill="none" xmlns="http://www.w3.org/2000/svg">
<rect y="0.811157" width="200" height="200" rx="24" fill="#CFEDA1"/>
<mask id="path-2-inside-1_244_2427" fill="white">
<path d="M133.044 118.973L120.071 102.292H124.972C125.682 102.292 126.378 102.093 126.981 101.718C127.585 101.342 128.071 100.806 128.384 100.168C128.698 99.5308 128.827 98.8183 128.757 98.1114C128.686 97.4045 128.419 96.7314 127.986 96.1684L102.63 63.2054C102.274 62.745 101.818 62.3721 101.296 62.1156C100.774 61.8591 100.2 61.7257 99.6186 61.7257C99.0369 61.7257 98.4631 61.8591 97.9411 62.1156C97.4191 62.3721 96.9629 62.745 96.6075 63.2054L71.2514 96.1684C70.8184 96.731 70.5514 97.4034 70.4807 98.1098C70.41 98.8162 70.5384 99.5282 70.8514 100.165C71.1644 100.803 71.6494 101.339 72.2517 101.715C72.854 102.091 73.5494 102.291 74.2593 102.292H79.1593L66.1865 118.973C65.7491 119.535 65.4784 120.209 65.4049 120.917C65.3315 121.625 65.4584 122.34 65.7711 122.98C66.0839 123.619 66.57 124.158 67.1741 124.536C67.7781 124.913 68.4759 125.112 69.188 125.113H95.812V136.523C95.812 137.532 96.2127 138.499 96.926 139.212C97.6393 139.925 98.6067 140.326 99.6154 140.326C100.624 140.326 101.592 139.925 102.305 139.212C103.018 138.499 103.419 137.532 103.419 136.523V125.113H130.043C130.755 125.112 131.453 124.913 132.057 124.536C132.661 124.158 133.147 123.619 133.46 122.98C133.772 122.34 133.899 121.625 133.826 120.917C133.752 120.209 133.482 119.535 133.044 118.973ZM76.966 117.506L89.9389 100.824C90.3762 100.262 90.647 99.589 90.7204 98.8807C90.7939 98.1724 90.667 97.4577 90.3542 96.818C90.0414 96.1783 89.5554 95.6392 88.9513 95.2621C88.3472 94.885 87.6494 94.6851 86.9373 94.6851H81.9834L99.6154 71.7631L117.247 94.6851H112.293C111.581 94.6851 110.884 94.885 110.28 95.2621C109.675 95.6392 109.189 96.1783 108.877 96.818C108.564 97.4577 108.437 98.1724 108.51 98.8807C108.584 99.589 108.855 100.262 109.292 100.824L122.265 117.506H76.966Z"/>
</mask>
<path d="M133.044 118.973L120.071 102.292H124.972C125.682 102.292 126.378 102.093 126.981 101.718C127.585 101.342 128.071 100.806 128.384 100.168C128.698 99.5308 128.827 98.8183 128.757 98.1114C128.686 97.4045 128.419 96.7314 127.986 96.1684L102.63 63.2054C102.274 62.745 101.818 62.3721 101.296 62.1156C100.774 61.8591 100.2 61.7257 99.6186 61.7257C99.0369 61.7257 98.4631 61.8591 97.9411 62.1156C97.4191 62.3721 96.9629 62.745 96.6075 63.2054L71.2514 96.1684C70.8184 96.731 70.5514 97.4034 70.4807 98.1098C70.41 98.8162 70.5384 99.5282 70.8514 100.165C71.1644 100.803 71.6494 101.339 72.2517 101.715C72.854 102.091 73.5494 102.291 74.2593 102.292H79.1593L66.1865 118.973C65.7491 119.535 65.4784 120.209 65.4049 120.917C65.3315 121.625 65.4584 122.34 65.7711 122.98C66.0839 123.619 66.57 124.158 67.1741 124.536C67.7781 124.913 68.4759 125.112 69.188 125.113H95.812V136.523C95.812 137.532 96.2127 138.499 96.926 139.212C97.6393 139.925 98.6067 140.326 99.6154 140.326C100.624 140.326 101.592 139.925 102.305 139.212C103.018 138.499 103.419 137.532 103.419 136.523V125.113H130.043C130.755 125.112 131.453 124.913 132.057 124.536C132.661 124.158 133.147 123.619 133.46 122.98C133.772 122.34 133.899 121.625 133.826 120.917C133.752 120.209 133.482 119.535 133.044 118.973ZM76.966 117.506L89.9389 100.824C90.3762 100.262 90.647 99.589 90.7204 98.8807C90.7939 98.1724 90.667 97.4577 90.3542 96.818C90.0414 96.1783 89.5554 95.6392 88.9513 95.2621C88.3472 94.885 87.6494 94.6851 86.9373 94.6851H81.9834L99.6154 71.7631L117.247 94.6851H112.293C111.581 94.6851 110.884 94.885 110.28 95.2621C109.675 95.6392 109.189 96.1783 108.877 96.818C108.564 97.4577 108.437 98.1724 108.51 98.8807C108.584 99.589 108.855 100.262 109.292 100.824L122.265 117.506H76.966Z" fill="#4E662A"/>
<path d="M133.044 118.973L125.15 125.112L125.153 125.115L133.044 118.973ZM120.071 102.292V92.292H99.6264L112.178 108.431L120.071 102.292ZM124.972 102.292L124.973 92.292H124.972V102.292ZM127.986 96.1684L120.06 102.266L120.062 102.268L127.986 96.1684ZM102.63 63.2054L110.556 57.1083L110.551 57.1021L110.546 57.0959L102.63 63.2054ZM99.6186 61.7257V71.7257V61.7257ZM96.6075 63.2054L88.6909 57.0959L88.6861 57.1021L88.6813 57.1083L96.6075 63.2054ZM71.2514 96.1684L79.1754 102.268L79.1776 102.266L71.2514 96.1684ZM74.2593 102.292L74.2436 112.292L74.2514 112.292H74.2593V102.292ZM79.1593 102.292L87.0532 108.431L99.6044 92.292H79.1593V102.292ZM66.1865 118.973L74.0783 125.115L74.0803 125.112L66.1865 118.973ZM69.188 125.113L69.1879 135.113H69.188V125.113ZM95.812 125.113H105.812V115.113H95.812V125.113ZM95.812 136.523H85.812H95.812ZM103.419 125.113V115.113H93.4188V125.113H103.419ZM130.043 125.113V135.113H130.043L130.043 125.113ZM76.966 117.506L69.0722 111.367L56.521 127.506H76.966V117.506ZM89.9389 100.824L82.0471 94.6828L82.045 94.6855L89.9389 100.824ZM86.9373 94.6851L86.9374 84.6851H86.9373V94.6851ZM81.9834 94.6851L74.0571 88.5881L61.6749 104.685H81.9834V94.6851ZM99.6154 71.7631L107.542 65.6661L99.6154 55.3618L91.6891 65.6661L99.6154 71.7631ZM117.247 94.6851V104.685H137.556L125.174 88.5881L117.247 94.6851ZM112.293 94.6851V84.6851H112.293L112.293 94.6851ZM109.292 100.824L117.186 94.6855L117.184 94.6828L109.292 100.824ZM122.265 117.506V127.506H142.71L130.159 111.367L122.265 117.506ZM140.938 112.834L127.965 96.153L112.178 108.431L125.15 125.112L140.938 112.834ZM120.071 112.292H124.972V92.292H120.071V112.292ZM124.971 112.292C127.549 112.292 130.076 111.57 132.265 110.208L121.698 93.2274C122.681 92.6159 123.815 92.2918 124.973 92.292L124.971 112.292ZM132.265 110.208C134.454 108.846 136.218 106.898 137.356 104.585L119.412 95.7519C119.924 94.7135 120.715 93.8389 121.698 93.2274L132.265 110.208ZM137.356 104.585C138.495 102.271 138.963 99.6854 138.707 97.1198L118.806 99.103C118.691 97.9512 118.901 96.7904 119.412 95.7519L137.356 104.585ZM138.707 97.1198C138.452 94.5542 137.483 92.1115 135.91 90.0684L120.062 102.268C119.356 101.351 118.921 100.255 118.806 99.103L138.707 97.1198ZM135.912 90.0713L110.556 57.1083L94.7034 69.3025L120.06 102.266L135.912 90.0713ZM110.546 57.0959C109.257 55.4248 107.601 54.0718 105.707 53.1408L96.8856 71.0905C96.0351 70.6725 95.2918 70.0651 94.7129 69.3149L110.546 57.0959ZM105.707 53.1408C103.812 52.2098 101.729 51.7257 99.6186 51.7257V71.7257C98.671 71.7257 97.736 71.5084 96.8856 71.0905L105.707 53.1408ZM99.6186 51.7257C97.5077 51.7257 95.425 52.2098 93.5306 53.1408L102.352 71.0905C101.501 71.5084 100.566 71.7257 99.6186 71.7257V51.7257ZM93.5306 53.1408C91.6362 54.0718 89.9805 55.4248 88.6909 57.0959L104.524 69.3149C103.945 70.0651 103.202 70.6725 102.352 71.0905L93.5306 53.1408ZM88.6813 57.1083L63.3251 90.0713L79.1776 102.266L104.534 69.3025L88.6813 57.1083ZM63.3274 90.0684C61.7558 92.1099 60.7869 94.5505 60.5304 97.1141L80.431 99.1055C80.3158 100.256 79.8809 101.352 79.1754 102.268L63.3274 90.0684ZM60.5304 97.1141C60.2739 99.6776 60.7399 102.262 61.8758 104.574L79.827 95.7566C80.337 96.7947 80.5462 97.9547 80.431 99.1055L60.5304 97.1141ZM61.8758 104.574C63.0116 106.887 64.772 108.835 66.9577 110.199L77.5457 93.2315C78.5269 93.8438 79.3171 94.7185 79.827 95.7566L61.8758 104.574ZM66.9577 110.199C69.1434 111.563 71.6672 112.288 74.2436 112.292L74.2749 92.292C75.4315 92.2938 76.5645 92.6193 77.5457 93.2315L66.9577 110.199ZM74.2593 112.292H79.1593V92.292H74.2593V112.292ZM71.2655 96.153L58.2926 112.834L74.0803 125.112L87.0532 108.431L71.2655 96.153ZM58.2947 112.831C56.7075 114.871 55.7247 117.315 55.4582 119.886L75.3516 121.948C75.232 123.102 74.7908 124.199 74.0783 125.115L58.2947 112.831ZM55.4582 119.886C55.1917 122.456 55.6523 125.05 56.7873 127.372L74.755 118.587C75.2645 119.63 75.4712 120.794 75.3516 121.948L55.4582 119.886ZM56.7873 127.372C57.9224 129.694 59.6865 131.65 61.8788 133.018L72.4693 116.053C73.4535 116.667 74.2454 117.545 74.755 118.587L56.7873 127.372ZM61.8788 133.018C64.0711 134.387 66.6036 135.112 69.1879 135.113L69.1881 115.113C70.3483 115.113 71.4851 115.438 72.4693 116.053L61.8788 133.018ZM69.188 135.113H95.812V115.113H69.188V135.113ZM85.812 125.113V136.523H105.812V125.113H85.812ZM85.812 136.523C85.812 140.184 87.2663 143.695 89.8549 146.283L103.997 132.141C105.159 133.303 105.812 134.879 105.812 136.523H85.812ZM89.8549 146.283C92.4435 148.872 95.9545 150.326 99.6154 150.326V130.326C101.259 130.326 102.835 130.979 103.997 132.141L89.8549 146.283ZM99.6154 150.326C103.276 150.326 106.787 148.872 109.376 146.283L95.2338 132.141C96.3958 130.979 97.972 130.326 99.6154 130.326V150.326ZM109.376 146.283C111.965 143.695 113.419 140.184 113.419 136.523H93.4188C93.4188 134.879 94.0717 133.303 95.2338 132.141L109.376 146.283ZM113.419 136.523V125.113H93.4188V136.523H113.419ZM103.419 135.113H130.043V115.113H103.419V135.113ZM130.043 135.113C132.627 135.112 135.16 134.387 137.352 133.018L126.762 116.053C127.746 115.438 128.883 115.113 130.043 115.113L130.043 135.113ZM137.352 133.018C139.544 131.65 141.308 129.693 142.443 127.372L124.476 118.587C124.985 117.545 125.777 116.667 126.762 116.053L137.352 133.018ZM142.443 127.372C143.579 125.05 144.039 122.456 143.773 119.886L123.879 121.948C123.76 120.794 123.966 119.63 124.476 118.587L142.443 127.372ZM143.773 119.886C143.506 117.315 142.523 114.871 140.936 112.831L125.153 125.115C124.44 124.199 123.999 123.102 123.879 121.948L143.773 119.886ZM84.8599 123.645L97.8327 106.963L82.045 94.6855L69.0722 111.367L84.8599 123.645ZM97.8306 106.966C99.4179 104.927 100.401 102.482 100.667 99.9119L80.7737 97.8496C80.8934 96.6956 81.3346 95.5984 82.0471 94.6828L97.8306 106.966ZM100.667 99.9119C100.934 97.3413 100.473 94.7476 99.338 92.4258L81.3704 101.21C80.8608 100.168 80.6541 99.0035 80.7737 97.8496L100.667 99.9119ZM99.338 92.4258C98.2029 90.1041 96.4388 88.1476 94.2465 86.7792L83.6561 103.745C82.6719 103.131 81.88 102.252 81.3704 101.21L99.338 92.4258ZM94.2465 86.7792C92.0542 85.4107 89.5218 84.6851 86.9374 84.6851L86.9372 104.685C85.7771 104.685 84.6402 104.359 83.6561 103.745L94.2465 86.7792ZM86.9373 84.6851H81.9834V104.685H86.9373V84.6851ZM89.9097 100.782L107.542 77.8602L91.6891 65.6661L74.0571 88.5881L89.9097 100.782ZM91.6891 77.8602L109.321 100.782L125.174 88.5881L107.542 65.6661L91.6891 77.8602ZM117.247 84.6851H112.293V104.685H117.247V84.6851ZM112.293 84.6851C109.709 84.6851 107.177 85.4107 104.984 86.7792L115.575 103.745C114.591 104.359 113.454 104.685 112.294 104.685L112.293 84.6851ZM104.984 86.7792C102.792 88.1477 101.028 90.1041 99.8928 92.4258L117.86 101.21C117.351 102.252 116.559 103.131 115.575 103.745L104.984 86.7792ZM99.8928 92.4258C98.7577 94.7475 98.2972 97.3413 98.5637 99.9119L118.457 97.8496C118.577 99.0036 118.37 100.168 117.86 101.21L99.8928 92.4258ZM98.5637 99.9119C98.8302 102.482 99.8129 104.927 101.4 106.966L117.184 94.6828C117.896 95.5984 118.337 96.6956 118.457 97.8496L98.5637 99.9119ZM101.398 106.963L114.371 123.645L130.159 111.367L117.186 94.6855L101.398 106.963ZM122.265 107.506H76.966V127.506H122.265V107.506Z" fill="#4E662A" mask="url(#path-2-inside-1_244_2427)"/>
</svg>
